<svg width="20" height="20" viewBox="0 0 20 20" fill="none" xmlns="http://www.w3.org/2000/svg">
<path d="M10.0003 3.12498C8.51699 3.12498 7.06694 3.56485 5.83357 4.38896C4.6002 5.21307 3.63891 6.38441 3.07125 7.75486C2.50359 9.1253 2.35507 10.6333 2.64446 12.0882C2.93385 13.543 3.64815 14.8794 4.69705 15.9283C5.74594 16.9772 7.08231 17.6915 8.53717 17.9809C9.99203 18.2703 11.5 18.1217 12.8705 17.5541C14.2409 16.9864 15.4123 16.0251 16.2364 14.7918C17.0605 13.5584 17.5003 12.1083 17.5003 10.625C17.4981 8.63656 16.7072 6.73022 15.3011 5.32419C13.8951 3.91816 11.9888 3.12726 10.0003 3.12498ZM10.0003 16.875C8.76421 16.875 7.55584 16.5084 6.52803 15.8217C5.50023 15.1349 4.69915 14.1588 4.2261 13.0168C3.75305 11.8747 3.62928 10.618 3.87044 9.40567C4.1116 8.19329 4.70685 7.07964 5.58093 6.20556C6.45501 5.33149 7.56865 4.73623 8.78103 4.49507C9.99341 4.25392 11.2501 4.37769 12.3921 4.85073C13.5342 5.32378 14.5103 6.12486 15.197 7.15267C15.8838 8.18047 16.2503 9.38885 16.2503 10.625C16.2485 12.282 15.5894 13.8706 14.4177 15.0423C13.246 16.214 11.6574 16.8731 10.0003 16.875ZM4.81753 2.94217L2.31754 5.44217C2.20026 5.55944 2.0412 5.62533 1.87535 5.62533C1.7095 5.62533 1.55044 5.55944 1.43316 5.44217C1.31588 5.32489 1.25 5.16583 1.25 4.99998C1.25 4.83413 1.31588 4.67507 1.43316 4.55779L3.93316 2.05779C3.99123 1.99972 4.06017 1.95366 4.13604 1.92224C4.21191 1.89081 4.29323 1.87463 4.37535 1.87463C4.45747 1.87463 4.53879 1.89081 4.61466 1.92224C4.69053 1.95366 4.75947 1.99972 4.81753 2.05779C4.8756 2.11586 4.92167 2.1848 4.95309 2.26067C4.98452 2.33654 5.00069 2.41786 5.00069 2.49998C5.00069 2.5821 4.98452 2.66342 4.95309 2.73929C4.92167 2.81516 4.8756 2.8841 4.81753 2.94217ZM18.5675 5.44217C18.5095 5.50028 18.4406 5.54638 18.3647 5.57783C18.2888 5.60928 18.2075 5.62547 18.1253 5.62547C18.0432 5.62547 17.9619 5.60928 17.886 5.57783C17.8101 5.54638 17.7412 5.50028 17.6832 5.44217L15.1832 2.94217C15.0659 2.82489 15 2.66583 15 2.49998C15 2.33413 15.0659 2.17507 15.1832 2.05779C15.3004 1.94052 15.4595 1.87463 15.6253 1.87463C15.7912 1.87463 15.9503 1.94052 16.0675 2.05779L18.5675 4.55779C18.6256 4.61584 18.6717 4.68477 18.7032 4.76064C18.7347 4.83652 18.7508 4.91785 18.7508 4.99998C18.7508 5.08212 18.7347 5.16345 18.7032 5.23932C18.6717 5.31519 18.6256 5.38412 18.5675 5.44217ZM14.3753 9.99998C14.5411 9.99998 14.7001 10.0658 14.8173 10.183C14.9345 10.3002 15.0003 10.4592 15.0003 10.625C15.0003 10.7907 14.9345 10.9497 14.8173 11.0669C14.7001 11.1841 14.5411 11.25 14.3753 11.25H10.0003C9.83459 11.25 9.67562 11.1841 9.55841 11.0669C9.4412 10.9497 9.37535 10.7907 9.37535 10.625V6.24998C9.37535 6.08422 9.4412 5.92525 9.55841 5.80804C9.67562 5.69083 9.83459 5.62498 10.0003 5.62498C10.1661 5.62498 10.3251 5.69083 10.4423 5.80804C10.5595 5.92525 10.6253 6.08422 10.6253 6.24998V9.99998H14.3753Z" fill="#B6875A"/>
</svg>
