<svg width="18" height="18" viewBox="0 0 18 18" fill="none" xmlns="http://www.w3.org/2000/svg">
<path d="M14.625 2.25H12.9375V1.6875C12.9375 1.53832 12.8782 1.39524 12.7727 1.28975C12.6673 1.18426 12.5242 1.125 12.375 1.125C12.2258 1.125 12.0827 1.18426 11.9773 1.28975C11.8718 1.39524 11.8125 1.53832 11.8125 1.6875V2.25H6.1875V1.6875C6.1875 1.53832 6.12824 1.39524 6.02275 1.28975C5.91726 1.18426 5.77418 1.125 5.625 1.125C5.47582 1.125 5.33274 1.18426 5.22725 1.28975C5.12176 1.39524 5.0625 1.53832 5.0625 1.6875V2.25H3.375C3.07663 2.25 2.79048 2.36853 2.5795 2.5795C2.36853 2.79048 2.25 3.07663 2.25 3.375V14.625C2.25 14.9234 2.36853 15.2095 2.5795 15.4205C2.79048 15.6315 3.07663 15.75 3.375 15.75H14.625C14.9234 15.75 15.2095 15.6315 15.4205 15.4205C15.6315 15.2095 15.75 14.9234 15.75 14.625V3.375C15.75 3.07663 15.6315 2.79048 15.4205 2.5795C15.2095 2.36853 14.9234 2.25 14.625 2.25ZM5.0625 3.375V3.9375C5.0625 4.08668 5.12176 4.22976 5.22725 4.33525C5.33274 4.44074 5.47582 4.5 5.625 4.5C5.77418 4.5 5.91726 4.44074 6.02275 4.33525C6.12824 4.22976 6.1875 4.08668 6.1875 3.9375V3.375H11.8125V3.9375C11.8125 4.08668 11.8718 4.22976 11.9773 4.33525C12.0827 4.44074 12.2258 4.5 12.375 4.5C12.5242 4.5 12.6673 4.44074 12.7727 4.33525C12.8782 4.22976 12.9375 4.08668 12.9375 3.9375V3.375H14.625V5.625H3.375V3.375H5.0625ZM14.625 14.625H3.375V6.75H14.625V14.625ZM9.84375 9.28125C9.84375 9.44813 9.79426 9.61126 9.70155 9.75001C9.60884 9.88877 9.47706 9.99691 9.32289 10.0608C9.16871 10.1246 8.99906 10.1413 8.83539 10.1088C8.67172 10.0762 8.52138 9.99587 8.40338 9.87787C8.28538 9.75987 8.20502 9.60953 8.17246 9.44586C8.13991 9.28219 8.15662 9.11254 8.22048 8.95836C8.28434 8.80419 8.39248 8.67241 8.53124 8.5797C8.66999 8.48698 8.83312 8.4375 9 8.4375C9.22378 8.4375 9.43839 8.52639 9.59662 8.68463C9.75485 8.84286 9.84375 9.05747 9.84375 9.28125ZM12.9375 9.28125C12.9375 9.44813 12.888 9.61126 12.7953 9.75001C12.7026 9.88877 12.5708 9.99691 12.4166 10.0608C12.2625 10.1246 12.0928 10.1413 11.9291 10.1088C11.7655 10.0762 11.6151 9.99587 11.4971 9.87787C11.3791 9.75987 11.2988 9.60953 11.2662 9.44586C11.2337 9.28219 11.2504 9.11254 11.3142 8.95836C11.3781 8.80419 11.4862 8.67241 11.625 8.5797C11.7637 8.48698 11.9269 8.4375 12.0938 8.4375C12.3175 8.4375 12.5321 8.52639 12.6904 8.68463C12.8486 8.84286 12.9375 9.05747 12.9375 9.28125ZM6.75 12.0938C6.75 12.2606 6.70052 12.4238 6.6078 12.5625C6.51509 12.7013 6.38331 12.8094 6.22914 12.8733C6.07496 12.9371 5.90531 12.9538 5.74164 12.9213C5.57797 12.8887 5.42763 12.8084 5.30963 12.6904C5.19163 12.5724 5.11127 12.422 5.07871 12.2584C5.04616 12.0947 5.06287 11.925 5.12673 11.7709C5.19059 11.6167 5.29873 11.4849 5.43749 11.3922C5.57624 11.2995 5.73937 11.25 5.90625 11.25C6.13003 11.25 6.34464 11.3389 6.50287 11.4971C6.66111 11.6554 6.75 11.87 6.75 12.0938ZM9.84375 12.0938C9.84375 12.2606 9.79426 12.4238 9.70155 12.5625C9.60884 12.7013 9.47706 12.8094 9.32289 12.8733C9.16871 12.9371 8.99906 12.9538 8.83539 12.9213C8.67172 12.8887 8.52138 12.8084 8.40338 12.6904C8.28538 12.5724 8.20502 12.422 8.17246 12.2584C8.13991 12.0947 8.15662 11.925 8.22048 11.7709C8.28434 11.6167 8.39248 11.4849 8.53124 11.3922C8.66999 11.2995 8.83312 11.25 9 11.25C9.22378 11.25 9.43839 11.3389 9.59662 11.4971C9.75485 11.6554 9.84375 11.87 9.84375 12.0938ZM12.9375 12.0938C12.9375 12.2606 12.888 12.4238 12.7953 12.5625C12.7026 12.7013 12.5708 12.8094 12.4166 12.8733C12.2625 12.9371 12.0928 12.9538 11.9291 12.9213C11.7655 12.8887 11.6151 12.8084 11.4971 12.6904C11.3791 12.5724 11.2988 12.422 11.2662 12.2584C11.2337 12.0947 11.2504 11.925 11.3142 11.7709C11.3781 11.6167 11.4862 11.4849 11.625 11.3922C11.7637 11.2995 11.9269 11.25 12.0938 11.25C12.3175 11.25 12.5321 11.3389 12.6904 11.4971C12.8486 11.6554 12.9375 11.87 12.9375 12.0938Z" fill="#B6875A"/>
</svg>
