<svg width="24" height="24" viewBox="0 0 24 24" fill="#B6875A" xmlns="http://www.w3.org/2000/svg">
<path fill-rule="evenodd" clip-rule="evenodd" d="M2.82565 9.63935C2.82564 9.63936 2.82566 9.63934 2.82565 9.63935V9.63935Z" fill=""/>
<path fill-rule="evenodd" clip-rule="evenodd" d="M2.85197 9.61184C2.8442 9.61996 2.83341 9.63124 2.82565 9.63935C2.79358 9.67272 2.76432 9.70317 2.73191 9.73704C2.76329 9.70425 2.79458 9.67168 2.82565 9.63935C2.83441 9.63019 2.84319 9.62102 2.85197 9.61184ZM9.63724 21.1723C9.66521 21.1992 9.69335 21.2262 9.72167 21.2534C9.69408 21.2269 9.66451 21.1985 9.63724 21.1723C9.63794 21.173 9.63653 21.1717 9.63724 21.1723ZM21.1743 14.3607C21.2064 14.3273 21.2357 14.2968 21.2681 14.263C21.2367 14.2957 21.2054 14.3283 21.1743 14.3607C21.1753 14.3597 21.1734 14.3617 21.1743 14.3607Z" fill="#B6875A"/>
<path fill-rule="evenodd" clip-rule="evenodd" d="M21.1662 9.63086L21.1744 9.63937C21.7959 10.2872 22.5 11.0212 22.5 12C22.5 12.9788 21.7959 13.7138 21.1743 14.3607C20.8219 14.729 20.4549 15.1125 20.3175 15.4453C20.1903 15.7513 20.1825 16.258 20.175 16.7493C20.161 17.6634 20.145 18.705 19.425 19.425C18.705 20.145 17.6699 20.1609 16.7558 20.1749C16.2645 20.1824 15.7513 20.1903 15.4453 20.3175C15.1132 20.4543 14.7358 20.8153 14.3691 21.1662L14.3606 21.1744C13.7128 21.7959 12.9788 22.5 12 22.5C11.0212 22.5 10.2841 21.7939 9.63724 21.1723C9.26886 20.8199 8.88747 20.4549 8.55469 20.3175C8.24872 20.1903 7.74198 20.1825 7.2507 20.175C6.33658 20.161 5.29499 20.145 4.575 19.425C3.85501 18.705 3.8391 17.6699 3.82506 16.7558C3.81757 16.2645 3.80975 15.7513 3.6825 15.4453C3.54575 15.1132 3.18466 14.7358 2.83377 14.3691L2.82562 14.3606C2.20406 13.7128 1.5 12.9788 1.5 12C1.5 11.0212 2.20409 10.2862 2.82565 9.63935C3.17813 9.27098 3.54509 8.88747 3.6825 8.55469C3.80975 8.24873 3.81747 7.742 3.82496 7.25072L3.82584 7.20658C3.84422 6.3018 3.86487 5.28513 4.575 4.575C5.29499 3.85501 6.33009 3.8391 7.2442 3.82506C7.73539 3.81757 8.25067 3.80972 8.55469 3.6825C8.8868 3.54575 9.26415 3.18467 9.63086 2.83377L9.63937 2.82562C10.2872 2.20406 11.0212 1.5 12 1.5C12.9788 1.5 13.7137 2.20406 14.3606 2.82562C14.729 3.17811 15.1125 3.54508 15.4453 3.6825C15.7513 3.80975 16.258 3.81747 16.7493 3.82496C17.6634 3.839 18.705 3.85501 19.425 4.575C20.145 5.29499 20.1609 6.33008 20.1749 7.2442C20.1824 7.73549 20.1903 8.24872 20.3175 8.55469C20.4543 8.8868 20.8153 9.26415 21.1662 9.63086ZM16.2806 9.21937C16.3504 9.28903 16.4057 9.37175 16.4434 9.46279C16.4812 9.55384 16.5006 9.65144 16.5006 9.75C16.5006 9.84856 16.4812 9.94616 16.4434 10.0372C16.4057 10.1283 16.3504 10.211 16.2806 10.2806L11.0306 15.5306C10.961 15.6004 10.8783 15.6557 10.7872 15.6934C10.6962 15.7312 10.5986 15.7506 10.5 15.7506C10.4014 15.7506 10.3038 15.7312 10.2128 15.6934C10.1217 15.6557 10.039 15.6004 9.96937 15.5306L7.71937 13.2806C7.57864 13.1399 7.49958 12.949 7.49958 12.75C7.49958 12.551 7.57864 12.3601 7.71937 12.2194C7.86011 12.0786 8.05098 11.9996 8.25 11.9996C8.44902 11.9996 8.63989 12.0786 8.78063 12.2194L10.5 13.9397L15.2194 9.21937C15.289 9.14964 15.3717 9.09432 15.4628 9.05658C15.5538 9.01884 15.6514 8.99941 15.75 8.99941C15.8486 8.99941 15.9462 9.01884 16.0372 9.05658C16.1283 9.09432 16.211 9.14964 16.2806 9.21937Z" fill=""/>
</svg>
