<svg width="16" height="16" viewBox="0 0 16 16" fill="none" xmlns="http://www.w3.org/2000/svg">
<path d="M7.91709 10.4882C7.91709 10.4882 7.97042 10.5 8.00005 10.5C8.02968 10.5 8.05339 10.5 8.08302 10.4882C8.11265 10.4882 8.13635 10.4764 8.16598 10.4647C8.19561 10.4529 8.21931 10.4411 8.24302 10.4234C8.2608 10.4117 8.27857 10.4117 8.29043 10.3999C8.30228 10.394 8.30228 10.3822 8.31413 10.3704C8.32006 10.3645 8.33191 10.3587 8.34376 10.3469L11.8934 6.23018C12.0534 6.04172 12.0297 5.76492 11.846 5.6059C11.6623 5.44689 11.3779 5.47045 11.2179 5.65302L8.00005 9.3869L4.78223 5.65302C4.62223 5.47045 4.34371 5.44689 4.15408 5.6059C4.05333 5.69425 4 5.81792 4 5.9416C4 6.04172 4.03556 6.14773 4.10667 6.23018L7.66227 10.3528C7.66227 10.3528 7.68005 10.3645 7.6919 10.3763C7.69783 10.3822 7.70375 10.394 7.70968 10.3999C7.72153 10.4117 7.73931 10.4175 7.75709 10.4234C7.78079 10.4411 7.80449 10.4529 7.83412 10.4647C7.85783 10.4764 7.88746 10.4823 7.91709 10.4882Z" fill="#B6875A"/>
</svg>
