<svg width="16" height="16" viewBox="0 0 16 16" fill="none" xmlns="http://www.w3.org/2000/svg">
<path d="M9.08291 6.51178C9.08291 6.51178 9.02958 6.5 8.99995 6.5C8.97032 6.5 8.94661 6.5 8.91698 6.51178C8.88735 6.51178 8.86365 6.52356 8.83402 6.53534C8.80439 6.54711 8.78069 6.55889 8.75698 6.57656C8.7392 6.58834 8.72143 6.58834 8.70957 6.60012C8.69772 6.60601 8.69772 6.61779 8.68587 6.62957C8.67994 6.63546 8.66809 6.64135 8.65624 6.65312L5.10656 10.7698C4.94656 10.9583 4.97026 11.2351 5.15397 11.3941C5.33768 11.5531 5.62213 11.5296 5.78213 11.347L8.99995 7.6131L12.2178 11.347C12.3778 11.5296 12.6563 11.5531 12.8459 11.3941C12.9467 11.3058 13 11.1821 13 11.0584C13 10.9583 12.9644 10.8523 12.8933 10.7698L9.33773 6.64723C9.33773 6.64723 9.31995 6.63546 9.3081 6.62368C9.30217 6.61779 9.29625 6.60601 9.29032 6.60012C9.27847 6.58834 9.26069 6.58245 9.24291 6.57656C9.21921 6.55889 9.19551 6.54711 9.16588 6.53534C9.14217 6.52356 9.11254 6.51767 9.08291 6.51178Z" fill="#B6875A"/>
</svg>
