<svg width="16" height="16" viewBox="0 0 16 16" fill="none" xmlns="http://www.w3.org/2000/svg">
<path d="M10.4882 8.08291C10.4882 8.08291 10.5 8.02958 10.5 7.99995C10.5 7.97032 10.5 7.94661 10.4882 7.91698C10.4882 7.88735 10.4764 7.86365 10.4647 7.83402C10.4529 7.80439 10.4411 7.78069 10.4234 7.75698C10.4117 7.7392 10.4117 7.72143 10.3999 7.70957C10.394 7.69772 10.3822 7.69772 10.3704 7.68587C10.3645 7.67994 10.3587 7.66809 10.3469 7.65624L6.23018 4.10656C6.04172 3.94656 5.76492 3.97026 5.6059 4.15397C5.44689 4.33768 5.47045 4.62213 5.65302 4.78213L9.3869 7.99995L5.65302 11.2178C5.47045 11.3778 5.44689 11.6563 5.6059 11.8459C5.69425 11.9467 5.81792 12 5.9416 12C6.04172 12 6.14773 11.9644 6.23018 11.8933L10.3528 8.33773C10.3528 8.33773 10.3645 8.31995 10.3763 8.3081C10.3822 8.30217 10.394 8.29625 10.3999 8.29032C10.4117 8.27847 10.4175 8.26069 10.4234 8.24291C10.4411 8.21921 10.4529 8.19551 10.4647 8.16588C10.4764 8.14217 10.4823 8.11254 10.4882 8.08291Z" fill="#B6875A"/>
</svg>
