<svg width="16" height="16" viewBox="0 0 16 16" fill="none" xmlns="http://www.w3.org/2000/svg">
<path d="M5.51178 7.91709C5.51178 7.91709 5.5 7.97042 5.5 8.00005C5.5 8.02968 5.5 8.05339 5.51178 8.08302C5.51178 8.11265 5.52356 8.13635 5.53534 8.16598C5.54711 8.19561 5.55889 8.21931 5.57656 8.24302C5.58834 8.2608 5.58834 8.27857 5.60012 8.29043C5.60601 8.30228 5.61779 8.30228 5.62957 8.31413C5.63546 8.32006 5.64135 8.33191 5.65312 8.34376L9.76982 11.8934C9.95828 12.0534 10.2351 12.0297 10.3941 11.846C10.5531 11.6623 10.5296 11.3779 10.347 11.2179L6.6131 8.00005L10.347 4.78223C10.5296 4.62223 10.5531 4.34371 10.3941 4.15408C10.3058 4.05333 10.1821 4 10.0584 4C9.95828 4 9.85227 4.03556 9.76982 4.10667L5.64723 7.66227C5.64723 7.66227 5.63546 7.68005 5.62368 7.6919C5.61779 7.69783 5.60601 7.70375 5.60012 7.70968C5.58834 7.72153 5.58245 7.73931 5.57656 7.75709C5.55889 7.78079 5.54711 7.80449 5.53534 7.83412C5.52356 7.85783 5.51767 7.88746 5.51178 7.91709Z" fill="#B6875A"/>
</svg>
