<svg width="24" height="24" viewBox="0 0 24 24" fill="none" xmlns="http://www.w3.org/2000/svg">
<path d="M12.9663 11.9943L19.3017 5.66464C19.5661 5.40052 19.5661 4.96336 19.3017 4.69925C19.0374 4.43513 18.5998 4.43513 18.3355 4.69925L12 11.0289L5.66454 4.69925C5.40018 4.43513 4.96263 4.43513 4.69827 4.69925C4.43391 4.96336 4.43391 5.40052 4.69827 5.66464L11.0337 11.9943L4.69827 18.3331C4.43391 18.5972 4.43391 19.0344 4.69827 19.2985C4.835 19.4351 5.0082 19.4989 5.1814 19.4989C5.3546 19.4989 5.5278 19.4351 5.66454 19.2985L12 12.9688L18.3355 19.2985C18.4722 19.4351 18.6454 19.4989 18.8186 19.4989C18.9918 19.4989 19.165 19.4351 19.3017 19.2985C19.5661 19.0344 19.5661 18.5972 19.3017 18.3331L12.9663 12.0034V11.9943Z" fill="#B6875A"/>
</svg>
