<svg width="20" height="20" viewBox="0 0 20 20" fill="#B6875A" xmlns="http://www.w3.org/2000/svg">
<path d="M17.3334 6.49688C18.2006 8.31079 18.3653 10.3817 17.7955 12.3098C17.2257 14.238 15.9619 15.8867 14.248 16.9379C12.5341 17.989 10.4915 18.3681 8.51459 18.0018C6.53765 17.6355 4.76645 16.55 3.54283 14.9546C2.31921 13.3592 1.72992 11.3671 1.88869 9.36284C2.04746 7.35854 2.94304 5.48408 4.40257 4.10126C5.8621 2.71843 7.78213 1.92525 9.79208 1.87482C11.802 1.82438 13.7594 2.52025 15.2865 3.82813L17.0576 2.05626C17.1749 1.93898 17.3339 1.8731 17.4998 1.8731C17.6656 1.8731 17.8247 1.93898 17.942 2.05626C18.0592 2.17353 18.1251 2.33259 18.1251 2.49844C18.1251 2.6643 18.0592 2.82336 17.942 2.94063L10.442 10.4406C10.3247 10.5579 10.1656 10.6238 9.99976 10.6238C9.83391 10.6238 9.67485 10.5579 9.55758 10.4406C9.4403 10.3234 9.37442 10.1643 9.37442 9.99844C9.37442 9.83259 9.4403 9.67353 9.55758 9.55626L11.7232 7.39063C11.1363 7.00247 10.4356 6.82375 9.73443 6.8834C9.0333 6.94305 8.37283 7.23759 7.85993 7.71932C7.34703 8.20105 7.01172 8.84179 6.90829 9.5378C6.80486 10.2338 6.93936 10.9444 7.29001 11.5544C7.64066 12.1645 8.18695 12.6384 8.84043 12.8993C9.49391 13.1603 10.2163 13.193 10.8908 12.9923C11.5652 12.7916 12.1521 12.3691 12.5566 11.7933C12.961 11.2175 13.1593 10.5221 13.1193 9.81954C13.1147 9.73746 13.1263 9.65528 13.1534 9.57768C13.1806 9.50009 13.2227 9.4286 13.2775 9.3673C13.3323 9.306 13.3986 9.25608 13.4726 9.22041C13.5467 9.18474 13.6271 9.164 13.7091 9.15938C13.8749 9.15006 14.0376 9.20696 14.1614 9.31758C14.2227 9.37235 14.2726 9.43866 14.3083 9.51272C14.3439 9.58679 14.3647 9.66715 14.3693 9.74922C14.4263 10.7436 14.1423 11.7276 13.5642 12.5387C12.9862 13.3498 12.1487 13.9393 11.1901 14.2099C10.2316 14.4805 9.20944 14.416 8.29257 14.027C7.3757 13.6379 6.61902 12.9477 6.14759 12.0703C5.67616 11.193 5.5182 10.181 5.69981 9.20174C5.88143 8.22245 6.39175 7.33444 7.14643 6.68448C7.90112 6.03452 8.85498 5.66152 9.85038 5.62712C10.8458 5.59273 11.8231 5.899 12.6209 6.49532L14.3982 4.71797C13.0957 3.63657 11.4396 3.07451 9.74793 3.13975C8.05628 3.205 6.44837 3.89294 5.23304 5.07146C4.0177 6.24998 3.28063 7.83597 3.16339 9.52482C3.04615 11.2137 3.55702 12.8863 4.59786 14.2214C5.6387 15.5566 7.13613 16.4601 8.80254 16.7584C10.469 17.0568 12.1868 16.729 13.6263 15.8379C15.0657 14.9468 16.1252 13.5554 16.6012 11.9307C17.0772 10.3061 16.9362 8.56293 16.2052 7.03594C16.1337 6.88634 16.1246 6.71448 16.1799 6.55815C16.2351 6.40182 16.3502 6.27383 16.4998 6.20235C16.6494 6.13087 16.8212 6.12174 16.9776 6.17697C17.1339 6.23221 17.2619 6.34728 17.3334 6.49688Z" fill=""/>
</svg>
