<svg width="16" height="16" viewBox="0 0 16 16" fill="none" xmlns="http://www.w3.org/2000/svg">
<path d="M7.99688 14.5C7.14186 14.5 6.30557 14.3314 5.51296 14.0067C4.72036 13.6757 4.00888 13.2011 3.4035 12.5954C2.79813 11.9896 2.32381 11.2777 1.99304 10.4846C1.66227 9.69155 1.5 8.85475 1.5 7.99922C1.5 7.14369 1.66851 6.30065 1.99304 5.51381C2.32381 4.72073 2.79813 4.00883 3.4035 3.40309C4.00888 2.79735 4.72036 2.32275 5.51296 1.99177C7.09818 1.33608 8.90182 1.33608 10.487 1.99177C11.2796 2.32275 11.9911 2.79735 12.5965 3.40309C13.2019 4.00883 13.6762 4.72073 14.007 5.51381C14.3377 6.30689 14.5 7.14369 14.5 7.99922C14.5 8.85475 14.3315 9.69779 14.007 10.4846C13.6762 11.2777 13.2081 11.9896 12.5965 12.5954C11.9911 13.2011 11.2796 13.6757 10.487 14.0067C9.69443 14.3376 8.85814 14.5 8.00312 14.5H7.99688ZM7.99688 2.43515C7.26044 2.43515 6.54897 2.57878 5.8687 2.85979C5.18843 3.14081 4.58305 3.54672 4.06505 4.06503C3.54705 4.58334 3.14138 5.18908 2.86054 5.86976C2.57969 6.55044 2.43615 7.26234 2.43615 7.99922C2.43615 8.7361 2.57969 9.448 2.86054 10.1287C3.14138 10.8094 3.54705 11.4151 4.06505 11.9334C4.58305 12.4517 5.18843 12.8576 5.8687 13.1386C7.223 13.7007 8.77076 13.7007 10.1251 13.1386C10.8053 12.8576 11.4107 12.4517 11.9287 11.9334C12.4467 11.4151 12.8524 10.8031 13.1332 10.1287C13.4141 9.448 13.5576 8.7361 13.5576 7.99922C13.5576 7.26234 13.4141 6.55044 13.1332 5.86976C12.8524 5.18908 12.4467 4.58334 11.9287 4.06503C11.4107 3.54672 10.8053 3.14081 10.1251 2.85979C9.44479 2.57878 8.73332 2.43515 7.99688 2.43515ZM10.0127 7.12496C9.75684 7.12496 9.53841 6.91263 9.53841 6.6566C9.53841 6.40056 9.74436 6.18824 10.0002 6.18824H10.0065C10.2624 6.18824 10.4746 6.40056 10.4746 6.6566C10.4746 6.91263 10.2624 7.12496 10.0065 7.12496H10.0127ZM5.99352 7.12496C5.73764 7.12496 5.5192 6.91263 5.5192 6.6566C5.5192 6.40056 5.72516 6.18824 5.98104 6.18824H5.98728C6.24316 6.18824 6.45535 6.40056 6.45535 6.6566C6.45535 6.91263 6.24316 7.12496 5.98728 7.12496H5.99352ZM9.08905 10.9592C9.43855 10.8156 9.74436 10.6033 10.0065 10.3348C10.1875 10.1474 10.1875 9.85391 10.0002 9.67281C9.81301 9.49171 9.51968 9.49171 9.33869 9.67906C9.16395 9.86015 8.95799 9.99754 8.72708 10.0975C8.26524 10.291 7.73476 10.291 7.27292 10.0975C7.04201 9.99754 6.83605 9.86015 6.66131 9.67906C6.48032 9.49171 6.18699 9.49171 5.99976 9.67281C5.81253 9.85391 5.81253 10.1474 5.99352 10.3348C6.25564 10.6033 6.56769 10.8156 6.91095 10.9592C7.26044 11.1029 7.62242 11.1778 8.00312 11.1778C8.38382 11.1778 8.7458 11.1029 9.0953 10.9592H9.08905Z"/>
</svg>
