<svg width="20" height="20" viewBox="0 0 20 20" fill="#B6875A" xmlns="http://www.w3.org/2000/svg">
<path d="M17.1336 8.49064L10.8836 2.24064C10.6492 2.0064 10.3314 1.87482 10 1.87482C9.66863 1.87482 9.35081 2.0064 9.11641 2.24064L2.86641 8.49064C2.74978 8.60642 2.65732 8.74422 2.59442 8.89604C2.53151 9.04787 2.49942 9.21068 2.50001 9.37502V16.875C2.50001 17.0408 2.56586 17.1997 2.68307 17.317C2.80028 17.4342 2.95925 17.5 3.12501 17.5H8.12501C8.29077 17.5 8.44974 17.4342 8.56695 17.317C8.68416 17.1997 8.75001 17.0408 8.75001 16.875V12.5H11.25V16.875C11.25 17.0408 11.3159 17.1997 11.4331 17.317C11.5503 17.4342 11.7092 17.5 11.875 17.5H16.875C17.0408 17.5 17.1997 17.4342 17.317 17.317C17.4342 17.1997 17.5 17.0408 17.5 16.875V9.37502C17.5006 9.21068 17.4685 9.04787 17.4056 8.89604C17.3427 8.74422 17.2502 8.60642 17.1336 8.49064ZM16.25 16.25H12.5V11.875C12.5 11.7093 12.4342 11.5503 12.3169 11.4331C12.1997 11.3159 12.0408 11.25 11.875 11.25H8.12501C7.95925 11.25 7.80028 11.3159 7.68307 11.4331C7.56586 11.5503 7.50001 11.7093 7.50001 11.875V16.25H3.75001V9.37502L10 3.12502L16.25 9.37502V16.25Z" fill=""/>
</svg>
