<svg width="20" height="20" viewBox="0 0 20 20" fill="#B6875A" xmlns="http://www.w3.org/2000/svg">
<path d="M18.0977 15.1992L15.5047 2.8711C15.4712 2.70988 15.4061 2.55688 15.3132 2.42088C15.2204 2.28488 15.1016 2.16857 14.9637 2.07863C14.8257 1.98868 14.6714 1.92687 14.5095 1.89676C14.3476 1.86664 14.1814 1.86881 14.0203 1.90313L10.3633 2.68907C10.0398 2.7599 9.75738 2.95558 9.57742 3.23356C9.39747 3.51153 9.33455 3.84932 9.40234 4.17344L11.9953 16.5016C12.0531 16.7828 12.206 17.0356 12.4282 17.2175C12.6504 17.3993 12.9285 17.4991 13.2156 17.5C13.3044 17.4999 13.3929 17.4904 13.4797 17.4719L17.1367 16.6859C17.4606 16.615 17.7433 16.4189 17.9233 16.1404C18.1033 15.862 18.1659 15.5237 18.0977 15.1992ZM10.625 3.91798V3.91094L14.2812 3.12969L14.5414 4.36954L10.8852 5.15626L10.625 3.91798ZM11.1422 6.37657L14.8 5.59141L15.0609 6.8336L11.4062 7.61954L11.1422 6.37657ZM11.6609 8.84298L15.3188 8.05704L16.3578 12.9977L12.7 13.7836L11.6609 8.84298ZM16.875 15.4641L13.2188 16.2453L12.9586 15.0055L16.6148 14.2188L16.875 15.457V15.4641ZM8.125 2.50001H4.375C4.04348 2.50001 3.72554 2.6317 3.49112 2.86612C3.2567 3.10054 3.125 3.41849 3.125 3.75001V16.25C3.125 16.5815 3.2567 16.8995 3.49112 17.1339C3.72554 17.3683 4.04348 17.5 4.375 17.5H8.125C8.45652 17.5 8.77446 17.3683 9.00888 17.1339C9.2433 16.8995 9.375 16.5815 9.375 16.25V3.75001C9.375 3.41849 9.2433 3.10054 9.00888 2.86612C8.77446 2.6317 8.45652 2.50001 8.125 2.50001ZM4.375 3.75001H8.125V5.00001H4.375V3.75001ZM4.375 6.25001H8.125V13.75H4.375V6.25001ZM8.125 16.25H4.375V15H8.125V16.25Z" fill=""/>
</svg>
