<svg width="18" height="18" viewBox="0 0 18 18" fill="none" xmlns="http://www.w3.org/2000/svg">
<path d="M17.4375 10.125C17.4375 10.2742 17.3782 10.4173 17.2727 10.5227C17.1673 10.6282 17.0242 10.6875 16.875 10.6875C16.7258 10.6875 16.5827 10.6282 16.4773 10.5227C16.3718 10.4173 16.3125 10.2742 16.3125 10.125C16.3105 8.33542 15.5986 6.61972 14.3332 5.35429C13.0678 4.08886 11.3521 3.37705 9.5625 3.375C7.92204 3.37686 6.34931 4.02935 5.18933 5.18933C4.02935 6.34931 3.37686 7.92204 3.375 9.5625C3.37667 11.0538 3.96984 12.4836 5.02437 13.5381C6.0789 14.5927 7.50867 15.1858 9 15.1875C10.3422 15.186 11.629 14.6522 12.5781 13.7031C13.5272 12.754 14.061 11.4672 14.0625 10.125C14.0612 8.93193 13.5867 7.78809 12.743 6.94446C11.8994 6.10083 10.7556 5.6263 9.5625 5.625C8.51855 5.62612 7.51768 6.04132 6.7795 6.7795C6.04132 7.51768 5.62612 8.51855 5.625 9.5625C5.62593 10.4573 5.98181 11.3152 6.61454 11.948C7.24728 12.5807 8.10518 12.9366 9 12.9375C9.36934 12.9375 9.73507 12.8648 10.0763 12.7234C10.4175 12.5821 10.7276 12.3749 10.9887 12.1137C11.2499 11.8526 11.4571 11.5425 11.5984 11.2013C11.7398 10.8601 11.8125 10.4943 11.8125 10.125C11.8125 9.52826 11.5754 8.95597 11.1535 8.53401C10.7315 8.11205 10.1592 7.875 9.5625 7.875C9.11495 7.875 8.68572 8.05279 8.36926 8.36926C8.05279 8.68572 7.875 9.11495 7.875 9.5625C7.875 9.86087 7.99353 10.147 8.2045 10.358C8.41548 10.569 8.70163 10.6875 9 10.6875C9.14918 10.6875 9.29226 10.6282 9.39775 10.5227C9.50324 10.4173 9.5625 10.2742 9.5625 10.125C9.41332 10.125 9.27024 10.0657 9.16475 9.96025C9.05926 9.85476 9 9.71168 9 9.5625C9 9.41332 9.05926 9.27024 9.16475 9.16475C9.27024 9.05926 9.41332 9 9.5625 9C9.86087 9 10.147 9.11853 10.358 9.3295C10.569 9.54048 10.6875 9.82663 10.6875 10.125C10.6875 10.5726 10.5097 11.0018 10.1932 11.3182C9.87678 11.6347 9.44755 11.8125 9 11.8125C8.40326 11.8125 7.83097 11.5754 7.40901 11.1535C6.98705 10.7315 6.75 10.1592 6.75 9.5625C6.75 8.81658 7.04632 8.10121 7.57376 7.57376C8.10121 7.04632 8.81658 6.75 9.5625 6.75C10.4573 6.75093 11.3152 7.10681 11.948 7.73954C12.5807 8.37228 12.9366 9.23018 12.9375 10.125C12.9364 11.1689 12.5212 12.1698 11.783 12.908C11.0448 13.6462 10.0439 14.0614 9 14.0625C7.80693 14.0612 6.66309 13.5867 5.81946 12.743C4.97583 11.8994 4.5013 10.7556 4.5 9.5625C4.50149 8.2203 5.03534 6.9335 5.98442 5.98442C6.9335 5.03534 8.2203 4.50149 9.5625 4.5C11.0538 4.50167 12.4836 5.09484 13.5381 6.14937C14.5927 7.2039 15.1858 8.63367 15.1875 10.125C15.1856 11.7655 14.5331 13.3382 13.3732 14.4982C12.2132 15.6581 10.6405 16.3106 9 16.3125C7.21042 16.3105 5.49472 15.5986 4.22929 14.3332C2.96386 13.0678 2.25205 11.3521 2.25 9.5625C2.25205 7.62373 3.02313 5.76496 4.39404 4.39404C5.76496 3.02313 7.62373 2.25205 9.5625 2.25C11.6504 2.25223 13.6521 3.08264 15.1285 4.559C16.6049 6.03537 17.4353 8.03711 17.4375 10.125Z" fill="#B6875A"/>
</svg>
