<svg width="16" height="16" viewBox="0 0 16 16" fill="none" xmlns="http://www.w3.org/2000/svg">
<path d="M8.00309 14.5C7.14303 14.5 6.30771 14.3329 5.51571 14.005C4.7237 13.6771 4.01214 13.2068 3.40576 12.6004C2.79938 11.9941 2.32294 11.2825 1.995 10.4905C1.66706 9.69848 1.5 8.86316 1.5 8.00309C1.5 7.14303 1.66706 6.30771 1.995 5.51571C2.32294 4.7237 2.79938 4.01214 3.40576 3.40576C4.01214 2.79938 4.7237 2.32294 5.51571 1.995C6.30771 1.66706 7.14303 1.5 8.00309 1.5C9.7356 1.5 11.3691 2.17444 12.5942 3.40576C13.8194 4.63089 14.5 6.2644 14.5 7.99691C14.5 9.72941 13.8256 11.3629 12.5942 12.5881C11.3691 13.8132 9.7356 14.4938 8.00309 14.4938V14.5ZM8.00309 2.50857C7.27915 2.50857 6.56759 2.65088 5.89933 2.92932C5.23108 3.20776 4.63089 3.60995 4.11733 4.12351C3.60376 4.63708 3.20157 5.23727 2.92313 5.90552C2.64469 6.57377 2.50238 7.28534 2.50238 8.00928C2.50238 8.73322 2.64469 9.44479 2.92313 10.113C3.20157 10.7813 3.60376 11.3815 4.11733 11.8951C4.63089 12.4086 5.23108 12.8108 5.89933 13.0831C6.56759 13.3615 7.27915 13.5038 8.00309 13.5038C9.46954 13.5038 10.8494 12.9346 11.8889 11.8951C12.9284 10.8555 13.4976 9.47573 13.4976 8.00928C13.4976 6.54284 12.9284 5.16302 11.8889 4.12351C10.8494 3.08401 9.46954 2.51475 8.00309 2.51475V2.50857ZM7.66897 11.202C7.59472 11.202 7.52665 11.1835 7.4524 11.1525C7.2049 11.035 7.09971 10.738 7.21728 10.4843C7.57615 9.72941 8.3496 8.83222 10.0017 8.83222C10.2801 8.83222 10.5029 9.05497 10.5029 9.33341C10.5029 9.61185 10.2801 9.8346 10.0017 9.8346C9.07972 9.8346 8.46716 10.1873 8.12066 10.9174C8.03403 11.0969 7.85459 11.202 7.66897 11.202ZM10.0017 7.16778H9.99548C9.71704 7.16778 9.49429 6.94503 9.49429 6.66659C9.49429 6.38815 9.71704 6.1654 9.99548 6.1654C10.2739 6.1654 10.4967 6.38815 10.4967 6.66659C10.4967 6.94503 10.2739 7.16778 10.0017 7.16778ZM6.00452 7.16778H5.99833C5.7199 7.16778 5.49714 6.94503 5.49714 6.66659C5.49714 6.38815 5.7199 6.1654 5.99833 6.1654C6.27677 6.1654 6.49952 6.38815 6.49952 6.66659C6.49952 6.94503 6.27677 7.16778 6.00452 7.16778Z" fill="#B6875A"/>
</svg>
