<svg width="18" height="18" viewBox="0 0 18 18" fill="none" xmlns="http://www.w3.org/2000/svg">
<path d="M3.37553 4.5C3.37553 4.35082 3.4348 4.20774 3.54029 4.10225C3.64577 3.99676 3.78885 3.9375 3.93803 3.9375H5.06303V2.8125C5.06303 2.66332 5.1223 2.52024 5.22779 2.41475C5.33328 2.30926 5.47635 2.25 5.62553 2.25C5.77472 2.25 5.91779 2.30926 6.02328 2.41475C6.12877 2.52024 6.18803 2.66332 6.18803 2.8125V3.9375H7.31303C7.46222 3.9375 7.60529 3.99676 7.71078 4.10225C7.81627 4.20774 7.87553 4.35082 7.87553 4.5C7.87553 4.64918 7.81627 4.79226 7.71078 4.89775C7.60529 5.00324 7.46222 5.0625 7.31303 5.0625H6.18803V6.1875C6.18803 6.33668 6.12877 6.47976 6.02328 6.58525C5.91779 6.69074 5.77472 6.75 5.62553 6.75C5.47635 6.75 5.33328 6.69074 5.22779 6.58525C5.1223 6.47976 5.06303 6.33668 5.06303 6.1875V5.0625H3.93803C3.78885 5.0625 3.64577 5.00324 3.54029 4.89775C3.4348 4.79226 3.37553 4.64918 3.37553 4.5ZM12.938 13.5H12.3755V12.9375C12.3755 12.7883 12.3163 12.6452 12.2108 12.5398C12.1053 12.4343 11.9622 12.375 11.813 12.375C11.6638 12.375 11.5208 12.4343 11.4153 12.5398C11.3098 12.6452 11.2505 12.7883 11.2505 12.9375V13.5H10.688C10.5388 13.5 10.3958 13.5593 10.2903 13.6648C10.1848 13.7702 10.1255 13.9133 10.1255 14.0625C10.1255 14.2117 10.1848 14.3548 10.2903 14.4602C10.3958 14.5657 10.5388 14.625 10.688 14.625H11.2505V15.1875C11.2505 15.3367 11.3098 15.4798 11.4153 15.5852C11.5208 15.6907 11.6638 15.75 11.813 15.75C11.9622 15.75 12.1053 15.6907 12.2108 15.5852C12.3163 15.4798 12.3755 15.3367 12.3755 15.1875V14.625H12.938C13.0872 14.625 13.2303 14.5657 13.3358 14.4602C13.4413 14.3548 13.5005 14.2117 13.5005 14.0625C13.5005 13.9133 13.4413 13.7702 13.3358 13.6648C13.2303 13.5593 13.0872 13.5 12.938 13.5ZM16.8755 10.125H15.7505V9C15.7505 8.85082 15.6913 8.70774 15.5858 8.60225C15.4803 8.49676 15.3372 8.4375 15.188 8.4375C15.0388 8.4375 14.8958 8.49676 14.7903 8.60225C14.6848 8.70774 14.6255 8.85082 14.6255 9V10.125H13.5005C13.3513 10.125 13.2083 10.1843 13.1028 10.2898C12.9973 10.3952 12.938 10.5383 12.938 10.6875C12.938 10.8367 12.9973 10.9798 13.1028 11.0852C13.2083 11.1907 13.3513 11.25 13.5005 11.25H14.6255V12.375C14.6255 12.5242 14.6848 12.6673 14.7903 12.7727C14.8958 12.8782 15.0388 12.9375 15.188 12.9375C15.3372 12.9375 15.4803 12.8782 15.5858 12.7727C15.6913 12.6673 15.7505 12.5242 15.7505 12.375V11.25H16.8755C17.0247 11.25 17.1678 11.1907 17.2733 11.0852C17.3788 10.9798 17.438 10.8367 17.438 10.6875C17.438 10.5383 17.3788 10.3952 17.2733 10.2898C17.1678 10.1843 17.0247 10.125 16.8755 10.125ZM15.4208 5.625L5.62553 15.4202C5.41458 15.6311 5.12854 15.7495 4.8303 15.7495C4.53206 15.7495 4.24602 15.6311 4.03506 15.4202L2.5796 13.9662C2.4751 13.8617 2.39221 13.7377 2.33566 13.6012C2.27911 13.4647 2.25 13.3183 2.25 13.1706C2.25 13.0228 2.27911 12.8765 2.33566 12.74C2.39221 12.6035 2.4751 12.4795 2.5796 12.375L12.3755 2.57977C12.48 2.47527 12.604 2.39238 12.7405 2.33583C12.877 2.27928 13.0234 2.25017 13.1711 2.25017C13.3189 2.25017 13.4652 2.27928 13.6017 2.33583C13.7382 2.39238 13.8622 2.47527 13.9667 2.57977L15.4208 4.03383C15.5253 4.1383 15.6082 4.26233 15.6647 4.39884C15.7213 4.53534 15.7504 4.68166 15.7504 4.82941C15.7504 4.97717 15.7213 5.12348 15.6647 5.25999C15.6082 5.3965 15.5253 5.52053 15.4208 5.625ZM11.5796 7.875L10.1255 6.42023L3.37553 13.1702L4.8296 14.625L11.5796 7.875ZM14.6255 4.82977L13.1708 3.375L10.9208 5.625L12.3755 7.07977L14.6255 4.82977Z" fill="#B6875A"/>
</svg>
