<svg width="20" height="20" viewBox="0 0 20 20" fill="none" xmlns="http://www.w3.org/2000/svg">
<path d="M18.1562 8.94455L6.9 2.05862C6.71022 1.94241 6.49287 1.87897 6.27037 1.87485C6.04788 1.87073 5.82832 1.92608 5.63438 2.03518C5.44227 2.14259 5.28225 2.29923 5.17075 2.48899C5.05926 2.67875 5.00032 2.89478 5 3.11487V16.8852C5.00145 17.2153 5.13393 17.5314 5.36833 17.7639C5.60273 17.9964 5.91986 18.1263 6.25 18.125C6.48043 18.1249 6.70639 18.0614 6.90313 17.9414L18.1562 11.0555C18.3371 10.9452 18.4866 10.7903 18.5904 10.6056C18.6941 10.4209 18.7486 10.2126 18.7486 10.0008C18.7486 9.78897 18.6941 9.58069 18.5904 9.39599C18.4866 9.21129 18.3371 9.05481 18.1562 8.94455Z" fill="#B6875A"/>
</svg>
