<svg width="18" height="18" viewBox="0 0 18 18" fill="none" xmlns="http://www.w3.org/2000/svg">
<path d="M12.8125 13.125C12.8125 13.7217 12.5754 14.294 12.1535 14.716C11.7315 15.1379 11.1592 15.375 10.5625 15.375C9.59922 15.375 8.66758 14.7471 8.34766 13.883C8.29898 13.7438 8.30685 13.5912 8.36958 13.4578C8.43231 13.3244 8.54488 13.221 8.68309 13.1698C8.8213 13.1185 8.97409 13.1236 9.1086 13.1839C9.24311 13.2441 9.34859 13.3548 9.40234 13.492C9.55984 13.9174 10.0703 14.25 10.5625 14.25C10.8609 14.25 11.147 14.1315 11.358 13.9205C11.569 13.7095 11.6875 13.4234 11.6875 13.125C11.6875 12.8266 11.569 12.5405 11.358 12.3295C11.147 12.1185 10.8609 12 10.5625 12H2.6875C2.53832 12 2.39524 11.9407 2.28975 11.8352C2.18426 11.7298 2.125 11.5867 2.125 11.4375C2.125 11.2883 2.18426 11.1452 2.28975 11.0398C2.39524 10.9343 2.53832 10.875 2.6875 10.875H10.5625C11.1592 10.875 11.7315 11.1121 12.1535 11.534C12.5754 11.956 12.8125 12.5283 12.8125 13.125ZM8.3125 7.5C8.90924 7.5 9.48153 7.26295 9.90349 6.84099C10.3254 6.41903 10.5625 5.84674 10.5625 5.25C10.5625 4.65326 10.3254 4.08097 9.90349 3.65901C9.48153 3.23705 8.90924 3 8.3125 3C7.34922 3 6.41758 3.62789 6.09766 4.49203C6.04898 4.63115 6.05685 4.78383 6.11958 4.91721C6.18231 5.05059 6.29488 5.15401 6.43309 5.20524C6.5713 5.25647 6.72409 5.25141 6.8586 5.19114C6.99311 5.13087 7.09859 5.02021 7.15234 4.88297C7.30984 4.45758 7.82031 4.125 8.3125 4.125C8.61087 4.125 8.89702 4.24353 9.108 4.4545C9.31897 4.66548 9.4375 4.95163 9.4375 5.25C9.4375 5.54837 9.31897 5.83452 9.108 6.0455C8.89702 6.25647 8.61087 6.375 8.3125 6.375H1.5625C1.41332 6.375 1.27024 6.43426 1.16475 6.53975C1.05926 6.64524 1 6.78832 1 6.9375C1 7.08668 1.05926 7.22976 1.16475 7.33525C1.27024 7.44074 1.41332 7.5 1.5625 7.5H8.3125ZM14.5 5.25C13.5367 5.25 12.6051 5.87789 12.2852 6.74203C12.2365 6.88115 12.2443 7.03383 12.3071 7.16721C12.3698 7.30059 12.4824 7.40401 12.6206 7.45524C12.7588 7.50647 12.9116 7.50141 13.0461 7.44114C13.1806 7.38087 13.2861 7.27021 13.3398 7.13297C13.4973 6.70758 14.0078 6.375 14.5 6.375C14.7984 6.375 15.0845 6.49353 15.2955 6.7045C15.5065 6.91548 15.625 7.20163 15.625 7.5C15.625 7.79837 15.5065 8.08452 15.2955 8.2955C15.0845 8.50647 14.7984 8.625 14.5 8.625H2.125C1.97582 8.625 1.83274 8.68426 1.72725 8.78975C1.62176 8.89524 1.5625 9.03832 1.5625 9.1875C1.5625 9.33668 1.62176 9.47976 1.72725 9.58525C1.83274 9.69074 1.97582 9.75 2.125 9.75H14.5C15.0967 9.75 15.669 9.51295 16.091 9.09099C16.5129 8.66903 16.75 8.09674 16.75 7.5C16.75 6.90326 16.5129 6.33097 16.091 5.90901C15.669 5.48705 15.0967 5.25 14.5 5.25Z" fill="#B6875A"/>
</svg>
