<svg width="18" height="18" viewBox="0 0 18 18" fill="none" xmlns="http://www.w3.org/2000/svg">
<path d="M6.1875 7.31253H2.8125C2.66332 7.31253 2.52024 7.25327 2.41475 7.14778C2.30926 7.04229 2.25 6.89921 2.25 6.75003V3.37503C2.25 3.22585 2.30926 3.08277 2.41475 2.97728C2.52024 2.87179 2.66332 2.81253 2.8125 2.81253C2.96168 2.81253 3.10476 2.87179 3.21025 2.97728C3.31574 3.08277 3.375 3.22585 3.375 3.37503V5.3923L4.40367 4.36362C5.6582 3.10278 7.362 2.39162 9.14062 2.38644H9.17789C10.9414 2.38189 12.6357 3.07229 13.8938 4.30808C13.9965 4.41317 14.054 4.55428 14.054 4.70124C14.054 4.84819 13.9965 4.98932 13.8938 5.09442C13.7911 5.19952 13.6513 5.26025 13.5044 5.26362C13.3575 5.26699 13.2151 5.21273 13.1077 5.11245C12.059 4.08313 10.6473 3.50799 9.17789 3.51144H9.14625C7.66419 3.516 6.24451 4.1085 5.19891 5.15886L4.17023 6.18753H6.1875C6.33668 6.18753 6.47976 6.24679 6.58525 6.35228C6.69074 6.45777 6.75 6.60085 6.75 6.75003C6.75 6.89921 6.69074 7.04229 6.58525 7.14778C6.47976 7.25327 6.33668 7.31253 6.1875 7.31253ZM15.1875 10.6875H11.8125C11.6633 10.6875 11.5202 10.7468 11.4148 10.8523C11.3093 10.9578 11.25 11.1008 11.25 11.25C11.25 11.3992 11.3093 11.5423 11.4148 11.6478C11.5202 11.7533 11.6633 11.8125 11.8125 11.8125H13.8298L12.8011 12.8412C11.7557 13.8914 10.3363 14.4839 8.85445 14.4886H8.82281C7.3534 14.4921 5.9417 13.9169 4.89305 12.8876C4.84065 12.834 4.77808 12.7914 4.709 12.7623C4.63991 12.7333 4.56572 12.7183 4.49077 12.7183C4.41581 12.7183 4.34162 12.7333 4.27254 12.7624C4.20346 12.7915 4.14089 12.834 4.0885 12.8877C4.03612 12.9413 3.99497 13.0048 3.96749 13.0745C3.94 13.1442 3.92673 13.2188 3.92844 13.2937C3.93016 13.3686 3.94684 13.4425 3.97749 13.5109C4.00815 13.5793 4.05216 13.6408 4.10695 13.692C5.36503 14.9278 7.05932 15.6182 8.82281 15.6136H8.85938C10.6378 15.6082 12.3413 14.8971 13.5956 13.6364L14.625 12.6078V14.625C14.625 14.7742 14.6843 14.9173 14.7898 15.0228C14.8952 15.1283 15.0383 15.1875 15.1875 15.1875C15.3367 15.1875 15.4798 15.1283 15.5852 15.0228C15.6907 14.9173 15.75 14.7742 15.75 14.625V11.25C15.75 11.1008 15.6907 10.9578 15.5852 10.8523C15.4798 10.7468 15.3367 10.6875 15.1875 10.6875Z" fill="#B6875A"/>
</svg>
