<svg width="24" height="24" viewBox="0 0 24 24" fill="none" xmlns="http://www.w3.org/2000/svg">
<path d="M2.00059 12.0004C2.00258 10.2108 2.71437 8.49508 3.97981 7.22964C5.24525 5.9642 6.96099 5.2524 8.75059 5.25042H18.9403L17.97 4.28104C17.8292 4.14031 17.7502 3.94944 17.7502 3.75042C17.7502 3.55139 17.8292 3.36052 17.97 3.21979C18.1107 3.07906 18.3016 3 18.5006 3C18.6996 3 18.8905 3.07906 19.0312 3.21979L21.2812 5.46979C21.3509 5.53945 21.4063 5.62216 21.444 5.71321C21.4818 5.80426 21.5012 5.90186 21.5012 6.00042C21.5012 6.09898 21.4818 6.19657 21.444 6.28762C21.4063 6.37867 21.3509 6.46139 21.2812 6.53104L19.0312 8.78104C18.8905 8.92177 18.6996 9.00083 18.5006 9.00083C18.3016 9.00083 18.1107 8.92177 17.97 8.78104C17.8292 8.64031 17.7502 8.44944 17.7502 8.25042C17.7502 8.05139 17.8292 7.86052 17.97 7.71979L18.9403 6.75042H8.75059C7.35866 6.75191 6.02417 7.30551 5.03992 8.28975C4.05568 9.27399 3.50208 10.6085 3.50059 12.0004C3.50059 12.1993 3.42157 12.3901 3.28092 12.5307C3.14027 12.6714 2.9495 12.7504 2.75059 12.7504C2.55168 12.7504 2.36091 12.6714 2.22026 12.5307C2.07961 12.3901 2.00059 12.1993 2.00059 12.0004ZM20.7506 11.2504C20.5517 11.2504 20.3609 11.3294 20.2203 11.4701C20.0796 11.6107 20.0006 11.8015 20.0006 12.0004C19.9991 13.3923 19.4455 14.7268 18.4613 15.7111C17.477 16.6953 16.1425 17.2489 14.7506 17.2504H4.5609L5.53121 16.281C5.6009 16.2114 5.65617 16.1286 5.69388 16.0376C5.7316 15.9465 5.75101 15.849 5.75101 15.7504C5.75101 15.6519 5.7316 15.5543 5.69388 15.4632C5.65617 15.3722 5.6009 15.2895 5.53121 15.2198C5.46153 15.1501 5.37881 15.0948 5.28776 15.0571C5.19672 15.0194 5.09914 15 5.00059 15C4.90204 15 4.80446 15.0194 4.71342 15.0571C4.62237 15.0948 4.53965 15.1501 4.46996 15.2198L2.21996 17.4698C2.15023 17.5394 2.09491 17.6222 2.05717 17.7132C2.01943 17.8043 2 17.9019 2 18.0004C2 18.099 2.01943 18.1966 2.05717 18.2876C2.09491 18.3787 2.15023 18.4614 2.21996 18.531L4.46996 20.781C4.53965 20.8507 4.62237 20.906 4.71342 20.9437C4.80446 20.9814 4.90204 21.0008 5.00059 21.0008C5.09914 21.0008 5.19672 20.9814 5.28776 20.9437C5.37881 20.906 5.46153 20.8507 5.53121 20.781C5.6009 20.7114 5.65617 20.6286 5.69388 20.5376C5.7316 20.4465 5.75101 20.349 5.75101 20.2504C5.75101 20.1519 5.7316 20.0543 5.69388 19.9632C5.65617 19.8722 5.6009 19.7895 5.53121 19.7198L4.5609 18.7504H14.7506C16.5402 18.7484 18.2559 18.0366 19.5214 16.7712C20.7868 15.5058 21.4986 13.79 21.5006 12.0004C21.5006 11.8015 21.4216 11.6107 21.2809 11.4701C21.1403 11.3294 20.9495 11.2504 20.7506 11.2504Z" fill="#B6875A"/>
</svg>
