<svg width="16" height="16" viewBox="0 0 16 16" fill="none" xmlns="http://www.w3.org/2000/svg">
<path d="M8.00617 2.5C8.43738 2.50451 8.86682 2.55246 9.28804 2.64272C9.37766 2.66193 9.45878 2.70754 9.52008 2.77317C9.58138 2.83881 9.6198 2.9212 9.62996 3.00882L9.72983 3.87021C9.74393 3.99165 9.78752 4.10822 9.8571 4.21054C9.92667 4.31285 10.0203 4.39806 10.1304 4.4593C10.2405 4.52053 10.3641 4.5561 10.4911 4.56312C10.6182 4.57015 10.7452 4.54844 10.8619 4.49975L11.6844 4.15282C11.7679 4.11748 11.8609 4.10794 11.9503 4.12553C12.0398 4.14311 12.1213 4.18695 12.1837 4.25098C12.7783 4.86086 13.2212 5.59221 13.4791 6.39006C13.5061 6.47396 13.5052 6.56384 13.4765 6.64723C13.4479 6.73062 13.3929 6.80338 13.3193 6.85544L12.5903 7.37216C12.4875 7.44446 12.404 7.53898 12.3464 7.64807C12.2888 7.75715 12.2588 7.87772 12.2588 8.00001C12.2588 8.1223 12.2888 8.24288 12.3464 8.35196C12.404 8.46104 12.4875 8.55556 12.5903 8.62786L13.3205 9.14401C13.3942 9.19611 13.4493 9.26898 13.4779 9.35248C13.5065 9.43599 13.5074 9.52598 13.4803 9.60996C13.2225 10.4078 12.7798 11.1391 12.1855 11.749C12.1232 11.813 12.0418 11.8569 11.9525 11.8746C11.8631 11.8923 11.7703 11.8829 11.6867 11.8478L10.8607 11.4997C10.7442 11.4506 10.6172 11.4286 10.4901 11.4354C10.363 11.4422 10.2394 11.4776 10.1293 11.5388C10.0191 11.6 9.92546 11.6852 9.85597 11.7876C9.78647 11.89 9.74306 12.0066 9.72924 12.1281L9.62937 12.9889C9.6194 13.0755 9.58182 13.1571 9.52178 13.2224C9.46174 13.2877 9.38217 13.3337 9.29392 13.3539C8.44303 13.5487 7.55638 13.5487 6.70549 13.3539C6.61714 13.3338 6.53743 13.2879 6.47728 13.2225C6.41713 13.1572 6.37947 13.0756 6.36946 12.9889L6.27017 12.1293C6.25575 12.0081 6.21196 11.892 6.1423 11.7901C6.07265 11.6882 5.97907 11.6033 5.8691 11.5425C5.75912 11.4816 5.63581 11.4463 5.50906 11.4394C5.38232 11.4326 5.25566 11.4544 5.13928 11.5031L4.31329 11.8506C4.22966 11.8859 4.13669 11.8953 4.04723 11.8776C3.95777 11.8599 3.87624 11.816 3.81393 11.7519C3.21948 11.1412 2.77698 10.4091 2.51972 9.61053C2.49264 9.52655 2.49347 9.43655 2.52211 9.35304C2.55074 9.26954 2.60576 9.19667 2.67951 9.14458L3.40975 8.62786C3.51247 8.55556 3.596 8.46104 3.65358 8.35196C3.71116 8.24288 3.74117 8.1223 3.74117 8.00001C3.74117 7.87772 3.71116 7.75715 3.65358 7.64807C3.596 7.53898 3.51247 7.44446 3.40975 7.37216L2.67951 6.85657C2.60576 6.80448 2.55074 6.73161 2.52211 6.64811C2.49347 6.5646 2.49264 6.4746 2.51972 6.39062C2.77765 5.59277 3.22054 4.86143 3.81511 4.25154C3.87749 4.18751 3.95905 4.14368 4.0485 4.12609C4.13796 4.10851 4.2309 4.11805 4.31446 4.15339L5.13693 4.50031C5.25385 4.54898 5.38103 4.57063 5.50824 4.56354C5.63546 4.55645 5.75917 4.5208 5.86944 4.45947C5.97971 4.39813 6.07346 4.31282 6.14315 4.21039C6.21285 4.10795 6.25656 3.99124 6.27076 3.86964L6.37063 3.00882C6.38071 2.92102 6.41916 2.83845 6.48058 2.7727C6.54201 2.70694 6.62332 2.66129 6.71313 2.64215C7.13376 2.55265 7.56478 2.50526 8.00617 2.5ZM8.00617 3.34616C7.73967 3.34887 7.47376 3.37094 7.21072 3.41216L7.1461 3.96328C7.11671 4.21674 7.02572 4.46002 6.88047 4.67352C6.73522 4.88702 6.53976 5.06476 6.30985 5.19244C6.07994 5.32011 5.82201 5.39413 5.55685 5.40854C5.29169 5.42295 5.02671 5.37734 4.78327 5.27539L4.25513 5.05313C3.91941 5.4446 3.65215 5.88583 3.4638 6.3596L3.93201 6.69073C4.14613 6.8416 4.32024 7.03876 4.44027 7.26624C4.5603 7.49372 4.62288 7.74514 4.62294 8.00015C4.62299 8.25516 4.56053 8.50661 4.4406 8.73414C4.32067 8.96167 4.14665 9.1589 3.9326 9.30986L3.46321 9.64155C3.6512 10.1165 3.91909 10.5588 4.25513 10.9514L4.78679 10.7275C5.02971 10.6256 5.29413 10.58 5.55878 10.5942C5.82343 10.6084 6.0809 10.682 6.31048 10.8093C6.54006 10.9365 6.73533 11.1137 6.88057 11.3266C7.02581 11.5395 7.11696 11.7821 7.14669 12.035L7.21072 12.5901C7.73358 12.6747 8.2676 12.6747 8.78986 12.5901L8.85449 12.035C8.88361 11.7818 8.97438 11.5386 9.11946 11.3252C9.26453 11.1118 9.45985 10.9342 9.68963 10.8067C9.9194 10.6792 10.1772 10.6054 10.4422 10.5912C10.7071 10.5771 10.9719 10.623 11.215 10.7252L11.746 10.9486C12.0821 10.5568 12.3495 10.1152 12.538 9.64099L12.0692 9.3093C11.855 9.15842 11.6809 8.96127 11.5609 8.73378C11.4409 8.5063 11.3783 8.25488 11.3782 7.99987C11.3782 7.74486 11.4406 7.49341 11.5606 7.26588C11.6805 7.03835 11.8545 6.84113 12.0686 6.69016L12.5368 6.35903C12.3483 5.88503 12.0809 5.4436 11.7449 5.05201L11.2179 5.2737C10.9745 5.376 10.7095 5.42191 10.4443 5.40774C10.179 5.39356 9.92098 5.31969 9.69094 5.19209C9.4609 5.06449 9.26534 4.88674 9.12004 4.67318C8.97474 4.45963 8.88377 4.21626 8.85449 3.96272L8.79045 3.41216C8.53129 3.3715 8.26874 3.34944 8.00617 3.34616ZM7.99912 5.88462C8.5834 5.88462 9.14375 6.10749 9.5569 6.50421C9.97005 6.90092 10.2022 7.43898 10.2022 8.00001C10.2022 8.56105 9.97005 9.0991 9.5569 9.49582C9.14375 9.89253 8.5834 10.1154 7.99912 10.1154C7.41484 10.1154 6.85449 9.89253 6.44133 9.49582C6.02818 9.0991 5.79608 8.56105 5.79608 8.00001C5.79608 7.43898 6.02818 6.90092 6.44133 6.50421C6.85449 6.10749 7.41484 5.88462 7.99912 5.88462ZM7.99912 6.73078C7.64855 6.73078 7.31234 6.8645 7.06445 7.10253C6.81656 7.34056 6.6773 7.66339 6.6773 8.00001C6.6773 8.33663 6.81656 8.65947 7.06445 8.89749C7.31234 9.13552 7.64855 9.26924 7.99912 9.26924C8.34969 9.26924 8.6859 9.13552 8.93379 8.89749C9.18168 8.65947 9.32094 8.33663 9.32094 8.00001C9.32094 7.66339 9.18168 7.34056 8.93379 7.10253C8.6859 6.8645 8.34969 6.73078 7.99912 6.73078Z" fill="#B6875A"/>
</svg>
