<svg width="24" height="24" viewBox="0 0 24 24" fill="none" xmlns="http://www.w3.org/2000/svg">
<path d="M22.0306 16.9698C22.1004 17.0394 22.1557 17.1222 22.1934 17.2132C22.2312 17.3043 22.2506 17.4019 22.2506 17.5004C22.2506 17.599 22.2312 17.6966 22.1934 17.7876C22.1557 17.8787 22.1004 17.9614 22.0306 18.031L19.7806 20.281C19.6399 20.4218 19.449 20.5008 19.25 20.5008C19.051 20.5008 18.8601 20.4218 18.7194 20.281C18.5786 20.1403 18.4996 19.9494 18.4996 19.7504C18.4996 19.5514 18.5786 19.3605 18.7194 19.2198L19.6897 18.2504H18.5881C17.5139 18.2495 16.4553 17.9927 15.5 17.5011C14.5448 17.0096 13.7205 16.2975 13.0953 15.4239L9.18406 9.94885C8.69778 9.2694 8.05662 8.71559 7.31368 8.33328C6.57074 7.95096 5.74741 7.75116 4.91188 7.75042H2.75C2.55109 7.75042 2.36032 7.6714 2.21967 7.53075C2.07902 7.39009 2 7.19933 2 7.00042C2 6.8015 2.07902 6.61074 2.21967 6.47009C2.36032 6.32943 2.55109 6.25042 2.75 6.25042H4.91188C5.98615 6.25131 7.04474 6.50817 7.99996 6.99972C8.95518 7.49127 9.77952 8.20335 10.4047 9.07698L14.3159 14.552C14.8022 15.2314 15.4434 15.7852 16.1863 16.1676C16.9293 16.5499 17.7526 16.7497 18.5881 16.7504H19.6897L18.7194 15.781C18.5786 15.6403 18.4996 15.4494 18.4996 15.2504C18.4996 15.0514 18.5786 14.8605 18.7194 14.7198C18.8601 14.5791 19.051 14.5 19.25 14.5C19.449 14.5 19.6399 14.5791 19.7806 14.7198L22.0306 16.9698ZM13.1562 10.2817C13.2364 10.3389 13.327 10.3798 13.423 10.402C13.5189 10.4243 13.6183 10.4274 13.7155 10.4112C13.8126 10.395 13.9057 10.3598 13.9892 10.3077C14.0728 10.2555 14.1453 10.1874 14.2025 10.1073L14.315 9.95073C14.8012 9.2708 15.4424 8.71655 16.1855 8.3339C16.9286 7.95125 17.7523 7.75123 18.5881 7.75042H19.6897L18.7194 8.71979C18.5786 8.86052 18.4996 9.05139 18.4996 9.25042C18.4996 9.44944 18.5786 9.64031 18.7194 9.78104C18.8601 9.92177 19.051 10.0008 19.25 10.0008C19.449 10.0008 19.6399 9.92177 19.7806 9.78104L22.0306 7.53104C22.1004 7.46139 22.1557 7.37867 22.1934 7.28762C22.2312 7.19657 22.2506 7.09898 22.2506 7.00042C22.2506 6.90186 22.2312 6.80426 22.1934 6.71321C22.1557 6.62216 22.1004 6.53945 22.0306 6.46979L19.7806 4.21979C19.6399 4.07906 19.449 4 19.25 4C19.051 4 18.8601 4.07906 18.7194 4.21979C18.5786 4.36052 18.4996 4.55139 18.4996 4.75042C18.4996 4.94944 18.5786 5.14031 18.7194 5.28104L19.6897 6.25042H18.5881C17.5139 6.25131 16.4553 6.50817 15.5 6.99972C14.5448 7.49127 13.7205 8.20335 13.0953 9.07698L12.9828 9.23354C12.9252 9.31369 12.884 9.40443 12.8616 9.50053C12.8391 9.59664 12.8358 9.69624 12.852 9.79361C12.8681 9.89098 12.9032 9.98421 12.9555 10.068C13.0077 10.1517 13.0759 10.2243 13.1562 10.2817ZM10.3438 14.2192C10.2636 14.1619 10.173 14.121 10.077 14.0988C9.98106 14.0766 9.88166 14.0735 9.78451 14.0897C9.68736 14.1059 9.59434 14.141 9.51078 14.1932C9.42722 14.2453 9.35475 14.3134 9.2975 14.3935L9.185 14.5501C8.69883 15.23 8.05761 15.7843 7.31448 16.1669C6.57136 16.5496 5.74773 16.7496 4.91188 16.7504H2.75C2.55109 16.7504 2.36032 16.8294 2.21967 16.9701C2.07902 17.1107 2 17.3015 2 17.5004C2 17.6993 2.07902 17.8901 2.21967 18.0307C2.36032 18.1714 2.55109 18.2504 2.75 18.2504H4.91188C5.98615 18.2495 7.04474 17.9927 7.99996 17.5011C8.95518 17.0096 9.77952 16.2975 10.4047 15.4239L10.5172 15.2673C10.5748 15.1871 10.616 15.0964 10.6384 15.0003C10.6609 14.9042 10.6642 14.8046 10.648 14.7072C10.6319 14.6099 10.5968 14.5166 10.5445 14.4329C10.4923 14.3491 10.4241 14.2765 10.3438 14.2192Z" fill="#B6875A"/>
</svg>
