<svg width="16" height="16" viewBox="0 0 16 16" fill="none" xmlns="http://www.w3.org/2000/svg">
<path d="M14.3434 7.06254L10.3784 5.62129L8.93717 1.65629C8.86613 1.46491 8.73823 1.29986 8.57064 1.1833C8.40305 1.06675 8.20381 1.00427 7.99967 1.00427C7.79554 1.00427 7.59629 1.06675 7.4287 1.1833C7.26111 1.29986 7.13321 1.46491 7.06217 1.65629L5.62092 5.62129L1.65592 7.06254C1.46454 7.13357 1.29949 7.26148 1.18294 7.42907C1.06638 7.59666 1.00391 7.7959 1.00391 8.00004C1.00391 8.20417 1.06638 8.40342 1.18294 8.57101C1.29949 8.7386 1.46454 8.8665 1.65592 8.93754L5.62092 10.3794L7.06217 14.3438C7.13321 14.5352 7.26111 14.7002 7.4287 14.8168C7.59629 14.9333 7.79554 14.9958 7.99967 14.9958C8.20381 14.9958 8.40305 14.9333 8.57064 14.8168C8.73823 14.7002 8.86613 14.5352 8.93717 14.3438L10.379 10.3788L14.3434 8.93754C14.5348 8.8665 14.6999 8.7386 14.8164 8.57101C14.933 8.40342 14.9954 8.20417 14.9954 8.00004C14.9954 7.7959 14.933 7.59666 14.8164 7.42907C14.6999 7.26148 14.5348 7.13357 14.3434 7.06254Z" fill="#B6875A"/>
</svg>
