<svg width="24" height="24" viewBox="0 0 24 24" fill="none" xmlns="http://www.w3.org/2000/svg">
<path d="M18.7322 3.18749C18.4979 3.05767 18.2332 2.99295 17.9654 3.00004C17.6977 3.00713 17.4368 3.08577 17.2097 3.2278L6 10.2403V3.74999C6 3.55108 5.92098 3.36031 5.78033 3.21966C5.63968 3.07901 5.44891 2.99999 5.25 2.99999C5.05109 2.99999 4.86032 3.07901 4.71967 3.21966C4.57902 3.36031 4.5 3.55108 4.5 3.74999V20.25C4.5 20.4489 4.57902 20.6397 4.71967 20.7803C4.86032 20.921 5.05109 21 5.25 21C5.44891 21 5.63968 20.921 5.78033 20.7803C5.92098 20.6397 6 20.4489 6 20.25V13.7597L17.2097 20.7703C17.4354 20.912 17.695 20.9908 17.9614 20.9985C18.2278 21.0063 18.4915 20.9426 18.7251 20.8142C18.9586 20.6858 19.1536 20.4973 19.2899 20.2682C19.4261 20.0391 19.4987 19.7778 19.5 19.5112V4.48874C19.5 4.22302 19.4287 3.96217 19.2937 3.73332C19.1587 3.50447 18.9648 3.31599 18.7322 3.18749ZM18 19.5L6.015 12L18 4.50655V19.5Z" fill="#B6875A"/>
</svg>
