<svg width="16" height="16" viewBox="0 0 16 16" fill="none" xmlns="http://www.w3.org/2000/svg">
<path d="M5.98082 7.12752C5.71908 7.12752 5.51342 6.91563 5.51342 6.66011C5.51342 6.4046 5.71908 6.19271 5.98082 6.19271C6.24257 6.19271 6.44823 6.39837 6.44823 6.66011C6.44823 6.92186 6.24257 7.12752 5.98706 7.12752H5.98082ZM14.5 8C14.5 9.73873 13.8207 11.3715 12.593 12.5992C11.3653 13.8269 9.7325 14.5 8 14.5C7.13998 14.5 6.30489 14.3317 5.51342 14.0077C4.71572 13.6774 4.00527 13.2037 3.40077 12.5992C2.79626 11.9885 2.32263 11.278 1.99233 10.4866C1.66203 9.69511 1.5 8.86002 1.5 8C1.5 7.13998 1.66203 6.30489 1.99233 5.51342C2.32263 4.72196 2.79626 4.01151 3.40077 3.40077C4.00527 2.79626 4.71572 2.32263 5.51342 1.99233C6.30489 1.66826 7.13998 1.5 8 1.5C9.7325 1.5 11.3653 2.17306 12.593 3.40077C13.8207 4.62848 14.5 6.26127 14.5 8ZM13.5652 8C13.5652 6.51055 12.9856 5.11457 11.9324 4.06136C10.8854 3.01438 9.48322 2.4348 8 2.4348C7.26462 2.4348 6.54794 2.57814 5.86865 2.85858C5.18936 3.13902 4.57862 3.5441 4.06136 4.06136C3.5441 4.58485 3.13902 5.18936 2.85858 5.86865C2.57191 6.54794 2.4348 7.26462 2.4348 8C2.4348 8.73538 2.57191 9.45206 2.85858 10.1314C3.13902 10.8106 3.5441 11.4151 4.06136 11.9386C4.57862 12.4559 5.18936 12.861 5.86865 13.1414C6.54794 13.4219 7.26462 13.5652 8 13.5652C9.48322 13.5652 10.8854 12.9856 11.9324 11.9386C12.9856 10.8854 13.5652 9.48945 13.5652 8ZM9.33988 9.68265C9.16539 9.86337 8.95973 10.0005 8.72915 10.1002C8.26174 10.2934 7.73202 10.2934 7.27085 10.1002C7.04027 10.0005 6.83461 9.86337 6.65388 9.68265C6.47315 9.50192 6.18025 9.49569 5.99329 9.67641C5.81256 9.85714 5.80633 10.1563 5.98706 10.337C6.2488 10.605 6.5604 10.8169 6.9094 10.9602C7.25839 11.1098 7.61985 11.1846 8 11.1846C8.38015 11.1846 8.74161 11.1098 9.0906 10.9602C9.43336 10.8169 9.74497 10.605 10.0067 10.337C10.1874 10.1563 10.1874 9.85714 10.0005 9.67641C9.81975 9.49569 9.52061 9.50192 9.33988 9.68265ZM10.6735 5.32023C10.4928 5.1395 10.1999 5.1395 10.0129 5.32023L9.00959 6.32982C8.92234 6.41707 8.87248 6.53547 8.87248 6.66011C8.87248 6.78476 8.92234 6.90316 9.00959 6.99041L10.0129 7.99377C10.1064 8.08725 10.2248 8.13087 10.3432 8.13087C10.4616 8.13087 10.5863 8.08725 10.6735 7.99377C10.8605 7.81304 10.8605 7.5139 10.6735 7.33317L10.0005 6.66011L10.6735 5.98082C10.8605 5.8001 10.8605 5.50719 10.6735 5.32023Z"/>
</svg>
