<svg width="16" height="16" viewBox="0 0 16 16" fill="none" xmlns="http://www.w3.org/2000/svg">
<path d="M7.99917 14.5C7.13839 14.5 6.30431 14.3332 5.51027 14.0062C4.71622 13.6793 4.00892 13.2055 3.40171 12.5983C2.79449 11.9911 2.32074 11.2838 1.99378 10.4897C1.66682 9.69569 1.5 8.86161 1.5 8.00083C1.5 7.14006 1.66682 6.30598 1.99378 5.51193C2.32074 4.71789 2.79449 4.01059 3.40171 3.40337C4.00892 2.79616 4.71622 2.3224 5.51027 1.99544C7.09836 1.33485 8.89997 1.33485 10.4881 1.99544C11.2821 2.3224 11.9894 2.79616 12.5966 3.40337C13.2038 4.01059 13.6776 4.71789 14.0046 5.51193C14.3315 6.30598 14.4983 7.14006 14.4983 8.00083C14.4983 8.86161 14.3315 9.69569 14.0046 10.4897C13.6776 11.2838 13.2038 11.9911 12.5966 12.5983C11.9894 13.2055 11.2754 13.6793 10.4881 14.0062C9.70069 14.3332 8.85994 14.5 7.99917 14.5ZM7.99917 2.48922C7.27185 2.48922 6.56454 2.62935 5.89061 2.9096C5.21667 3.18985 4.61613 3.59021 4.10234 4.104C3.58854 4.6178 3.18818 5.21834 2.90793 5.89227C2.62768 6.56621 2.48755 7.27351 2.48755 8.00083C2.48755 8.72815 2.62768 9.43545 2.90793 10.1094C3.18818 10.7833 3.58854 11.3839 4.10234 11.8977C4.61613 12.4115 5.21667 12.8118 5.89061 13.0921C7.23181 13.6526 8.75985 13.6459 10.1011 13.0921C10.775 12.8118 11.3755 12.4115 11.8893 11.8977C12.4031 11.3839 12.8035 10.7833 13.0837 10.1094C13.364 9.44213 13.5041 8.72815 13.5041 8.00083C13.5041 7.27351 13.364 6.56621 13.0837 5.89227C12.8035 5.21834 12.4031 4.6178 11.8893 4.104C11.3755 3.59021 10.775 3.18985 10.1011 2.9096C9.42711 2.62935 8.71981 2.48922 7.99249 2.48922H7.99917ZM6.331 11.197C6.20422 11.197 6.07744 11.1503 5.97735 11.0569C5.77717 10.8634 5.77717 10.5498 5.97068 10.3496C6.23758 10.076 6.5512 9.86918 6.89818 9.72238C7.59881 9.42878 8.39285 9.42878 9.09348 9.72238C9.44046 9.86918 9.75407 10.0827 10.021 10.3496C10.2145 10.5431 10.2145 10.8634 10.021 11.0569C9.82747 11.2504 9.50718 11.2504 9.31368 11.0569C9.14019 10.8834 8.94001 10.7433 8.71314 10.6499C8.2594 10.4564 7.7456 10.4564 7.29186 10.6499C7.06499 10.7433 6.86481 10.8834 6.69133 11.0569C6.59124 11.157 6.46445 11.2037 6.331 11.2037V11.197ZM10.3346 8.16098C10.2078 8.16098 10.081 8.11427 9.98094 8.01418L8.98005 7.01328C8.78654 6.81977 8.78654 6.49949 8.98005 6.30598L9.98094 5.30508C10.1745 5.11157 10.4947 5.11157 10.6882 5.30508C10.8818 5.49859 10.8818 5.81888 10.6882 6.01238L10.041 6.65963L10.6882 7.30688C10.8818 7.50039 10.8818 7.82067 10.6882 8.01418C10.5882 8.11427 10.4614 8.16098 10.3346 8.16098ZM5.66374 8.16098C5.53696 8.16098 5.41018 8.11427 5.31009 8.01418C5.11658 7.82067 5.11658 7.50039 5.31009 7.30688L5.95733 6.65963L5.31009 6.01238C5.11658 5.81888 5.11658 5.49859 5.31009 5.30508C5.50359 5.11157 5.82388 5.11157 6.01739 5.30508L7.01828 6.30598C7.21179 6.49949 7.21179 6.81977 7.01828 7.01328L6.01739 8.01418C5.9173 8.11427 5.79052 8.16098 5.66374 8.16098Z"/>
</svg>
