<svg width="376" height="24" viewBox="0 0 376 24" fill="none" xmlns="http://www.w3.org/2000/svg">
<path d="M1.5 12H56.5" stroke="#FEFADF" stroke-width="3" stroke-linecap="round"/>
<path fill-rule="evenodd" clip-rule="evenodd" d="M63.3256 9.63935C63.3256 9.63936 63.3257 9.63934 63.3256 9.63935V9.63935Z" fill="#FEFADF"/>
<path fill-rule="evenodd" clip-rule="evenodd" d="M63.352 9.61184C63.3442 9.61996 63.3334 9.63124 63.3256 9.63935C63.2936 9.67272 63.2643 9.70317 63.2319 9.73704C63.2633 9.70425 63.2946 9.67168 63.3256 9.63935C63.3344 9.63019 63.3432 9.62102 63.352 9.61184ZM70.1372 21.1723C70.1652 21.1992 70.1933 21.2262 70.2217 21.2534C70.1941 21.2269 70.1645 21.1985 70.1372 21.1723C70.1379 21.173 70.1365 21.1717 70.1372 21.1723ZM81.6743 14.3607C81.7064 14.3273 81.7357 14.2968 81.7681 14.263C81.7367 14.2957 81.7054 14.3283 81.6743 14.3607C81.6753 14.3597 81.6734 14.3617 81.6743 14.3607Z" fill="#FEFADF"/>
<path fill-rule="evenodd" clip-rule="evenodd" d="M81.6662 9.63086L81.6744 9.63937C82.2959 10.2872 83 11.0212 83 12C83 12.9788 82.2959 13.7138 81.6743 14.3607C81.3219 14.729 80.9549 15.1125 80.8175 15.4453C80.6903 15.7513 80.6825 16.258 80.675 16.7493C80.661 17.6634 80.645 18.705 79.925 19.425C79.205 20.145 78.1699 20.1609 77.2558 20.1749C76.7645 20.1824 76.2513 20.1903 75.9453 20.3175C75.6132 20.4543 75.2358 20.8153 74.8691 21.1662L74.8606 21.1744C74.2128 21.7959 73.4788 22.5 72.5 22.5C71.5212 22.5 70.7841 21.7939 70.1372 21.1723C69.7689 20.8199 69.3875 20.4549 69.0547 20.3175C68.7487 20.1903 68.242 20.1825 67.7507 20.175C66.8366 20.161 65.795 20.145 65.075 19.425C64.355 18.705 64.3391 17.6699 64.3251 16.7558C64.3176 16.2645 64.3097 15.7513 64.1825 15.4453C64.0457 15.1132 63.6847 14.7358 63.3338 14.3691L63.3256 14.3606C62.7041 13.7128 62 12.9788 62 12C62 11.0212 62.7041 10.2862 63.3256 9.63935C63.6781 9.27098 64.0451 8.88747 64.1825 8.55469C64.3097 8.24873 64.3175 7.742 64.325 7.25072L64.3258 7.20658C64.3442 6.3018 64.3649 5.28513 65.075 4.575C65.795 3.85501 66.8301 3.8391 67.7442 3.82506C68.2354 3.81757 68.7507 3.80972 69.0547 3.6825C69.3868 3.54575 69.7642 3.18467 70.1309 2.83377L70.1394 2.82562C70.7872 2.20406 71.5212 1.5 72.5 1.5C73.4788 1.5 74.2137 2.20406 74.8606 2.82562C75.229 3.17811 75.6125 3.54508 75.9453 3.6825C76.2513 3.80975 76.758 3.81747 77.2493 3.82496C78.1634 3.839 79.205 3.85501 79.925 4.575C80.645 5.29499 80.6609 6.33008 80.6749 7.2442C80.6824 7.73549 80.6903 8.24872 80.8175 8.55469C80.9543 8.8868 81.3153 9.26415 81.6662 9.63086ZM76.7806 9.21937C76.8504 9.28903 76.9057 9.37175 76.9434 9.46279C76.9812 9.55384 77.0006 9.65144 77.0006 9.75C77.0006 9.84856 76.9812 9.94616 76.9434 10.0372C76.9057 10.1283 76.8504 10.211 76.7806 10.2806L71.5306 15.5306C71.461 15.6004 71.3783 15.6557 71.2872 15.6934C71.1962 15.7312 71.0986 15.7506 71 15.7506C70.9014 15.7506 70.8038 15.7312 70.7128 15.6934C70.6217 15.6557 70.539 15.6004 70.4694 15.5306L68.2194 13.2806C68.0786 13.1399 67.9996 12.949 67.9996 12.75C67.9996 12.551 68.0786 12.3601 68.2194 12.2194C68.3601 12.0786 68.551 11.9996 68.75 11.9996C68.949 11.9996 69.1399 12.0786 69.2806 12.2194L71 13.9397L75.7194 9.21937C75.789 9.14964 75.8717 9.09432 75.9628 9.05658C76.0538 9.01884 76.1514 8.99941 76.25 8.99941C76.3486 8.99941 76.4462 9.01884 76.5372 9.05658C76.6283 9.09432 76.711 9.14964 76.7806 9.21937Z" fill="#FEFADF"/>
<path d="M88.5 12H116H143.5" stroke="#FEFADF" stroke-width="3" stroke-linecap="round"/>
<path fill-rule="evenodd" clip-rule="evenodd" d="M150.326 9.63935C150.326 9.63936 150.326 9.63934 150.326 9.63935V9.63935Z" fill="#FEFADF"/>
<path fill-rule="evenodd" clip-rule="evenodd" d="M150.352 9.61184C150.344 9.61996 150.333 9.63124 150.326 9.63935C150.294 9.67272 150.264 9.70317 150.232 9.73704C150.263 9.70425 150.295 9.67168 150.326 9.63935C150.334 9.63019 150.343 9.62102 150.352 9.61184ZM157.137 21.1723C157.165 21.1992 157.193 21.2262 157.222 21.2534C157.194 21.2269 157.165 21.1985 157.137 21.1723C157.138 21.173 157.137 21.1717 157.137 21.1723ZM168.674 14.3607C168.706 14.3273 168.736 14.2968 168.768 14.263C168.737 14.2957 168.705 14.3283 168.674 14.3607C168.675 14.3597 168.673 14.3617 168.674 14.3607Z" fill="#FEFADF"/>
<path fill-rule="evenodd" clip-rule="evenodd" d="M168.666 9.63086L168.674 9.63937C169.296 10.2872 170 11.0212 170 12C170 12.9788 169.296 13.7138 168.674 14.3607C168.322 14.729 167.955 15.1125 167.818 15.4453C167.69 15.7513 167.683 16.258 167.675 16.7493C167.661 17.6634 167.645 18.705 166.925 19.425C166.205 20.145 165.17 20.1609 164.256 20.1749C163.765 20.1824 163.251 20.1903 162.945 20.3175C162.613 20.4543 162.236 20.8153 161.869 21.1662L161.861 21.1744C161.213 21.7959 160.479 22.5 159.5 22.5C158.521 22.5 157.784 21.7939 157.137 21.1723C156.769 20.8199 156.387 20.4549 156.055 20.3175C155.749 20.1903 155.242 20.1825 154.751 20.175C153.837 20.161 152.795 20.145 152.075 19.425C151.355 18.705 151.339 17.6699 151.325 16.7558C151.318 16.2645 151.31 15.7513 151.182 15.4453C151.046 15.1132 150.685 14.7358 150.334 14.3691L150.326 14.3606C149.704 13.7128 149 12.9788 149 12C149 11.0212 149.704 10.2862 150.326 9.63935C150.678 9.27098 151.045 8.88747 151.182 8.55469C151.31 8.24873 151.317 7.742 151.325 7.25072L151.326 7.20658C151.344 6.3018 151.365 5.28513 152.075 4.575C152.795 3.85501 153.83 3.8391 154.744 3.82506C155.235 3.81757 155.751 3.80972 156.055 3.6825C156.387 3.54575 156.764 3.18467 157.131 2.83377L157.139 2.82562C157.787 2.20406 158.521 1.5 159.5 1.5C160.479 1.5 161.214 2.20406 161.861 2.82562C162.229 3.17811 162.613 3.54508 162.945 3.6825C163.251 3.80975 163.758 3.81747 164.249 3.82496C165.163 3.839 166.205 3.85501 166.925 4.575C167.645 5.29499 167.661 6.33008 167.675 7.2442C167.682 7.73549 167.69 8.24872 167.818 8.55469C167.954 8.8868 168.315 9.26415 168.666 9.63086ZM163.781 9.21937C163.85 9.28903 163.906 9.37175 163.943 9.46279C163.981 9.55384 164.001 9.65144 164.001 9.75C164.001 9.84856 163.981 9.94616 163.943 10.0372C163.906 10.1283 163.85 10.211 163.781 10.2806L158.531 15.5306C158.461 15.6004 158.378 15.6557 158.287 15.6934C158.196 15.7312 158.099 15.7506 158 15.7506C157.901 15.7506 157.804 15.7312 157.713 15.6934C157.622 15.6557 157.539 15.6004 157.469 15.5306L155.219 13.2806C155.079 13.1399 155 12.949 155 12.75C155 12.551 155.079 12.3601 155.219 12.2194C155.36 12.0786 155.551 11.9996 155.75 11.9996C155.949 11.9996 156.14 12.0786 156.281 12.2194L158 13.9397L162.719 9.21937C162.789 9.14964 162.872 9.09432 162.963 9.05658C163.054 9.01884 163.151 8.99941 163.25 8.99941C163.349 8.99941 163.446 9.01884 163.537 9.05658C163.628 9.09432 163.711 9.14964 163.781 9.21937Z" fill="#FEFADF"/>
<path d="M175.5 12H203H230.5" stroke="#FEFADF" stroke-opacity="0.3" stroke-width="3" stroke-linecap="round"/>
<path fill-rule="evenodd" clip-rule="evenodd" d="M237.326 9.63935C237.326 9.63936 237.326 9.63934 237.326 9.63935V9.63935Z" fill="#FEFADF" fill-opacity="0.4"/>
<path fill-rule="evenodd" clip-rule="evenodd" d="M237.352 9.61184C237.344 9.61996 237.333 9.63124 237.326 9.63935C237.294 9.67272 237.264 9.70317 237.232 9.73704C237.263 9.70425 237.295 9.67168 237.326 9.63935C237.334 9.63019 237.343 9.62102 237.352 9.61184ZM244.137 21.1723C244.165 21.1992 244.193 21.2262 244.222 21.2534C244.194 21.2269 244.165 21.1985 244.137 21.1723C244.138 21.173 244.137 21.1717 244.137 21.1723ZM255.674 14.3607C255.706 14.3273 255.736 14.2968 255.768 14.263C255.737 14.2957 255.705 14.3283 255.674 14.3607C255.675 14.3597 255.673 14.3617 255.674 14.3607Z" fill="#FEFADF" fill-opacity="0.4"/>
<path fill-rule="evenodd" clip-rule="evenodd" d="M255.666 9.63086L255.674 9.63937C256.296 10.2872 257 11.0212 257 12C257 12.9788 256.296 13.7138 255.674 14.3607C255.322 14.729 254.955 15.1125 254.818 15.4453C254.69 15.7513 254.683 16.258 254.675 16.7493C254.661 17.6634 254.645 18.705 253.925 19.425C253.205 20.145 252.17 20.1609 251.256 20.1749C250.765 20.1824 250.251 20.1903 249.945 20.3175C249.613 20.4543 249.236 20.8153 248.869 21.1662L248.861 21.1744C248.213 21.7959 247.479 22.5 246.5 22.5C245.521 22.5 244.784 21.7939 244.137 21.1723C243.769 20.8199 243.387 20.4549 243.055 20.3175C242.749 20.1903 242.242 20.1825 241.751 20.175C240.837 20.161 239.795 20.145 239.075 19.425C238.355 18.705 238.339 17.6699 238.325 16.7558C238.318 16.2645 238.31 15.7513 238.182 15.4453C238.046 15.1132 237.685 14.7358 237.334 14.3691L237.326 14.3606C236.704 13.7128 236 12.9788 236 12C236 11.0212 236.704 10.2862 237.326 9.63935C237.678 9.27098 238.045 8.88747 238.182 8.55469C238.31 8.24873 238.317 7.742 238.325 7.25072L238.326 7.20658C238.344 6.3018 238.365 5.28513 239.075 4.575C239.795 3.85501 240.83 3.8391 241.744 3.82506C242.235 3.81757 242.751 3.80972 243.055 3.6825C243.387 3.54575 243.764 3.18467 244.131 2.83377L244.139 2.82562C244.787 2.20406 245.521 1.5 246.5 1.5C247.479 1.5 248.214 2.20406 248.861 2.82562C249.229 3.17811 249.613 3.54508 249.945 3.6825C250.251 3.80975 250.758 3.81747 251.249 3.82496C252.163 3.839 253.205 3.85501 253.925 4.575C254.645 5.29499 254.661 6.33008 254.675 7.2442C254.682 7.73549 254.69 8.24872 254.818 8.55469C254.954 8.8868 255.315 9.26415 255.666 9.63086ZM250.781 9.21937C250.85 9.28903 250.906 9.37175 250.943 9.46279C250.981 9.55384 251.001 9.65144 251.001 9.75C251.001 9.84856 250.981 9.94616 250.943 10.0372C250.906 10.1283 250.85 10.211 250.781 10.2806L245.531 15.5306C245.461 15.6004 245.378 15.6557 245.287 15.6934C245.196 15.7312 245.099 15.7506 245 15.7506C244.901 15.7506 244.804 15.7312 244.713 15.6934C244.622 15.6557 244.539 15.6004 244.469 15.5306L242.219 13.2806C242.079 13.1399 242 12.949 242 12.75C242 12.551 242.079 12.3601 242.219 12.2194C242.36 12.0786 242.551 11.9996 242.75 11.9996C242.949 11.9996 243.14 12.0786 243.281 12.2194L245 13.9397L249.719 9.21937C249.789 9.14964 249.872 9.09432 249.963 9.05658C250.054 9.01884 250.151 8.99941 250.25 8.99941C250.349 8.99941 250.446 9.01884 250.537 9.05658C250.628 9.09432 250.711 9.14964 250.781 9.21937Z" fill="#FEFADF" fill-opacity="0.4"/>
<path d="M262.5 12H317.5" stroke="#FEFADF" stroke-opacity="0.3" stroke-width="3" stroke-linecap="round"/>
<path d="M333.5 1.5C339.3 1.5 344 6.2 344 12C344 17.8 339.3 22.5 333.5 22.5C327.7 22.5 323 17.8 323 12C323 6.2 327.7 1.5 333.5 1.5ZM335.83 8.35C335.18 6.14 332.06 6.14 331.41 8.35C331.19 9.1 330.6 9.69 329.85 9.91C327.64 10.56 327.64 13.68 329.85 14.33C330.6 14.55 331.19 15.14 331.41 15.89C332.06 18.1 335.18 18.1 335.83 15.89C336.05 15.14 336.64 14.55 337.39 14.33C339.6 13.68 339.6 10.56 337.39 9.91C336.64 9.69 336.05 9.1 335.83 8.35Z" fill="#FEFADF" fill-opacity="0.4"/>
</svg>
