<svg width="16" height="16" viewBox="0 0 16 16" fill="none" xmlns="http://www.w3.org/2000/svg">
<path d="M7.99609 11.213C7.18822 11.213 6.49752 10.7505 6.18917 9.9981C6.15217 9.91176 6.08433 9.83776 5.99182 9.80076C5.24562 9.49858 4.77693 8.80171 4.77693 7.99383C4.77693 7.18596 5.23945 6.49526 5.99182 6.18691C6.07816 6.1499 6.15217 6.08207 6.18917 5.98956C6.49135 5.24336 7.18822 4.77467 7.99609 4.77467C8.80397 4.77467 9.49467 5.23719 9.80302 5.98956C9.84002 6.0759 9.90786 6.1499 10.0004 6.18691C10.7466 6.48909 11.2153 7.18596 11.2153 7.99383C11.2153 8.80171 10.7527 9.49241 10.0004 9.80076C9.91403 9.83776 9.84002 9.9056 9.80302 9.9981C9.49467 10.7443 8.80397 11.213 7.99609 11.213ZM7.99609 5.70588C7.66308 5.70588 7.23755 5.87239 7.04638 6.34108C6.91687 6.66176 6.65786 6.91461 6.34334 7.04412C5.87465 7.23529 5.70814 7.66082 5.70814 7.99383C5.70814 8.32685 5.87465 8.75237 6.34334 8.94355C6.66403 9.07305 6.91687 9.33207 7.04638 9.64658C7.23755 10.1153 7.66308 10.2818 7.99609 10.2818C8.32911 10.2818 8.75463 10.1153 8.94581 9.64658C9.07532 9.3259 9.33433 9.07305 9.64884 8.94355C10.1175 8.75237 10.284 8.32685 10.284 7.99383C10.284 7.66082 10.1175 7.23529 9.64884 7.04412C9.32816 6.91461 9.07532 6.6556 8.94581 6.34108C8.75463 5.87239 8.32911 5.70588 7.99609 5.70588ZM7.99609 14.4938C4.41308 14.4938 1.49609 11.583 1.49609 8C1.49609 4.41698 4.41308 1.5 7.99609 1.5C11.5791 1.5 14.4961 4.41698 14.4961 8C14.4961 11.583 11.5791 14.5 7.99609 14.5V14.4938ZM7.99609 2.42505C4.91877 2.42505 2.42114 4.92268 2.42114 8C2.42114 11.0773 4.91877 13.575 7.99609 13.575C11.0734 13.575 13.571 11.0773 13.571 8C13.571 4.92268 11.0673 2.42505 7.99609 2.42505Z" fill="#B6875A"/>
</svg>
