<svg width="16" height="16" viewBox="0 0 16 16" fill="none" xmlns="http://www.w3.org/2000/svg">
<path d="M7.99609 1.5C11.5866 1.5 14.4961 4.40952 14.4961 8C14.4961 11.5905 11.5866 14.5 7.99609 14.5C4.40562 14.5 1.49609 11.5905 1.49609 8C1.49609 4.40952 4.40562 1.5 7.99609 1.5ZM9.43848 5.74048C9.03609 4.37238 7.10467 4.37238 6.70228 5.74048C6.56609 6.20476 6.20086 6.57 5.73657 6.70619C4.36847 7.10857 4.36847 9.04 5.73657 9.44238C6.20086 9.57857 6.56609 9.94381 6.70228 10.4081C7.10467 11.7762 9.03609 11.7762 9.43848 10.4081C9.57467 9.94381 9.9399 9.57857 10.4042 9.44238C11.7723 9.04 11.7723 7.10857 10.4042 6.70619C9.9399 6.57 9.57467 6.20476 9.43848 5.74048Z" fill="#B6875A"/>
</svg>
